<?xml version="1.0" encoding="UTF-8" standalone="no"?>
<!DOCTYPE svg PUBLIC "-//W3C//DTD SVG 1.1//EN"
 "http://www.w3.org/Graphics/SVG/1.1/DTD/svg11.dtd">
<!-- Generated by graphviz version 2.40.1 (20161225.0304)
 -->
<!-- Title: F Pages: 1 -->
<svg width="217pt" height="426pt"
 viewBox="0.00 0.00 217.00 426.00" xmlns="http://www.w3.org/2000/svg" xmlns:xlink="http://www.w3.org/1999/xlink">
<g id="graph0" class="graph" transform="scale(1 1) rotate(0) translate(4 422)">
<title>F</title>
<polygon fill="#ffffff" stroke="transparent" points="-4,4 -4,-422 213,-422 213,4 -4,4"/>
<text text-anchor="middle" x="104.5" y="-6.8" font-family="Times,serif" font-size="14.00" fill="#000000">F</text>
<!-- x -->
<g id="node1" class="node">
<title>x</title>
<ellipse fill="none" stroke="#c0c0c0" cx="41" cy="-400" rx="27" ry="18"/>
<text text-anchor="middle" x="41" y="-397.4235" font-family="luxi serif" font-size="13.00" fill="#d07070">x</text>
</g>
<!-- exp_1 -->
<g id="node5" class="node">
<title>exp_1</title>
<ellipse fill="#a0b0d0" stroke="#a0b0d0" cx="171" cy="-256" rx="27" ry="18"/>
<text text-anchor="middle" x="171" y="-253.4235" font-family="luxi serif" font-size="13.00" fill="#ffffff">Exp</text>
</g>
<!-- x&#45;&gt;exp_1 -->
<g id="edge7" class="edge">
<title>x&#45;&gt;exp_1</title>
<path fill="none" stroke="#c0c0c0" d="M43.7825,-381.8817C47.6084,-362.2291 56.1606,-330.8756 74,-310 78.8724,-304.2984 113.6775,-285.568 140.216,-271.7595"/>
<polygon fill="#c0c0c0" stroke="#c0c0c0" points="141.9247,-274.8162 149.1955,-267.11 138.706,-268.6001 141.9247,-274.8162"/>
<text text-anchor="middle" x="139.4228" y="-271.5498" font-family="luxi serif" font-size="11.00" fill="#a0b0d0">base</text>
</g>
<!-- exp_2 -->
<g id="node7" class="node">
<title>exp_2</title>
<ellipse fill="#a0b0d0" stroke="#a0b0d0" cx="27" cy="-256" rx="27" ry="18"/>
<text text-anchor="middle" x="27" y="-253.4235" font-family="luxi serif" font-size="13.00" fill="#ffffff">Exp</text>
</g>
<!-- x&#45;&gt;exp_2 -->
<g id="edge8" class="edge">
<title>x&#45;&gt;exp_2</title>
<path fill="none" stroke="#c0c0c0" d="M39.2269,-381.7623C36.839,-357.201 32.5657,-313.2474 29.7566,-284.3541"/>
<polygon fill="#c0c0c0" stroke="#c0c0c0" points="33.21,-283.704 28.7587,-274.0896 26.2429,-284.3814 33.21,-283.704"/>
<text text-anchor="middle" x="18.986" y="-278.5294" font-family="luxi serif" font-size="11.00" fill="#a0b0d0">base</text>
</g>
<!-- y -->
<g id="node2" class="node">
<title>y</title>
<ellipse fill="none" stroke="#c0c0c0" cx="123" cy="-400" rx="27" ry="18"/>
<text text-anchor="middle" x="123" y="-397.4235" font-family="luxi serif" font-size="13.00" fill="#d07070">y</text>
</g>
<!-- sin_1 -->
<g id="node4" class="node">
<title>sin_1</title>
<ellipse fill="#a0b0d0" stroke="#a0b0d0" cx="182" cy="-328" rx="27" ry="18"/>
<text text-anchor="middle" x="182" y="-325.4235" font-family="luxi serif" font-size="13.00" fill="#ffffff">Sin</text>
</g>
<!-- y&#45;&gt;sin_1 -->
<g id="edge9" class="edge">
<title>y&#45;&gt;sin_1</title>
<path fill="none" stroke="#c0c0c0" d="M136.094,-384.0209C143.8089,-374.6061 153.7189,-362.5126 162.3555,-351.973"/>
<polygon fill="#c0c0c0" stroke="#c0c0c0" points="165.3115,-353.8877 168.9426,-343.9345 159.8971,-349.4509 165.3115,-353.8877"/>
<text text-anchor="middle" x="157.0617" y="-348.3742" font-family="luxi serif" font-size="11.00" fill="#a0b0d0">angle</text>
</g>
<!-- sin_2 -->
<g id="node6" class="node">
<title>sin_2</title>
<ellipse fill="#a0b0d0" stroke="#a0b0d0" cx="110" cy="-328" rx="27" ry="18"/>
<text text-anchor="middle" x="110" y="-325.4235" font-family="luxi serif" font-size="13.00" fill="#ffffff">Sin</text>
</g>
<!-- y&#45;&gt;sin_2 -->
<g id="edge10" class="edge">
<title>y&#45;&gt;sin_2</title>
<path fill="none" stroke="#c0c0c0" d="M119.7196,-381.8314C118.3078,-374.0125 116.625,-364.6923 115.0595,-356.0221"/>
<polygon fill="#c0c0c0" stroke="#c0c0c0" points="118.4556,-355.1324 113.2344,-345.9134 111.567,-356.3762 118.4556,-355.1324"/>
<text text-anchor="middle" x="125.1152" y="-350.3532" font-family="luxi serif" font-size="11.00" fill="#a0b0d0">angle</text>
</g>
<!-- return -->
<g id="node3" class="node">
<title>return</title>
<ellipse fill="none" stroke="#c0c0c0" cx="70" cy="-40" rx="31.0061" ry="18"/>
<text text-anchor="middle" x="70" y="-37.4235" font-family="luxi serif" font-size="13.00" fill="#7070d0">return</text>
</g>
<!-- sin_1&#45;&gt;exp_1 -->
<g id="edge1" class="edge">
<title>sin_1&#45;&gt;exp_1</title>
<path fill="none" stroke="#c0c0c0" d="M179.2242,-309.8314C178.0297,-302.0125 176.6058,-292.6923 175.2812,-284.0221"/>
<polygon fill="#c0c0c0" stroke="#c0c0c0" points="178.707,-283.2701 173.7368,-273.9134 171.7873,-284.3273 178.707,-283.2701"/>
<text text-anchor="middle" x="165.7231" y="-278.3532" font-family="luxi serif" font-size="11.00" fill="#a0b0d0">exp</text>
</g>
<!-- ratio -->
<g id="node8" class="node">
<title>ratio</title>
<ellipse fill="#a0b0d0" stroke="#a0b0d0" cx="99" cy="-184" rx="29.0241" ry="18"/>
<text text-anchor="middle" x="99" y="-181.4235" font-family="luxi serif" font-size="13.00" fill="#ffffff">Ratio</text>
</g>
<!-- exp_1&#45;&gt;ratio -->
<g id="edge3" class="edge">
<title>exp_1&#45;&gt;ratio</title>
<path fill="none" stroke="#c0c0c0" d="M155.7307,-240.7307C145.9372,-230.9372 133.0387,-218.0387 122.0156,-207.0156"/>
<polygon fill="#c0c0c0" stroke="#c0c0c0" points="124.2911,-204.3413 114.7451,-199.7451 119.3413,-209.2911 124.2911,-204.3413"/>
<text text-anchor="middle" x="129.7143" y="-204.1848" font-family="luxi serif" font-size="11.00" fill="#a0b0d0">denom</text>
</g>
<!-- sin_2&#45;&gt;exp_2 -->
<g id="edge2" class="edge">
<title>sin_2&#45;&gt;exp_2</title>
<path fill="none" stroke="#c0c0c0" d="M93.2037,-313.4297C81.2002,-303.017 64.8613,-288.8435 51.4189,-277.1827"/>
<polygon fill="#c0c0c0" stroke="#c0c0c0" points="53.3354,-274.2118 43.4881,-270.3029 48.7485,-279.4996 53.3354,-274.2118"/>
<text text-anchor="middle" x="51.5017" y="-274.7426" font-family="luxi serif" font-size="11.00" fill="#a0b0d0">exp</text>
</g>
<!-- sum -->
<g id="node10" class="node">
<title>sum</title>
<ellipse fill="#a0b0d0" stroke="#a0b0d0" cx="70" cy="-112" rx="27" ry="18"/>
<text text-anchor="middle" x="70" y="-109.4235" font-family="luxi serif" font-size="13.00" fill="#ffffff">Sum</text>
</g>
<!-- exp_2&#45;&gt;sum -->
<g id="edge6" class="edge">
<title>exp_2&#45;&gt;sum</title>
<path fill="none" stroke="#c0c0c0" d="M32.2726,-238.3428C39.6228,-213.7281 53.0225,-168.8549 61.7147,-139.746"/>
<polygon fill="#c0c0c0" stroke="#c0c0c0" points="65.1766,-140.385 64.6842,-129.8017 58.4692,-138.3821 65.1766,-140.385"/>
<text text-anchor="middle" x="54.2133" y="-134.2414" font-family="luxi serif" font-size="11.00" fill="#a0b0d0">right</text>
</g>
<!-- ratio&#45;&gt;sum -->
<g id="edge5" class="edge">
<title>ratio&#45;&gt;sum</title>
<path fill="none" stroke="#c0c0c0" d="M91.8315,-166.2022C88.5303,-158.0064 84.5412,-148.1024 80.8809,-139.0145"/>
<polygon fill="#c0c0c0" stroke="#c0c0c0" points="84.0688,-137.5612 77.0861,-129.593 77.5757,-140.1766 84.0688,-137.5612"/>
<text text-anchor="middle" x="84.4445" y="-134.0328" font-family="luxi serif" font-size="11.00" fill="#a0b0d0">left</text>
</g>
<!-- lit_1 -->
<g id="node9" class="node">
<title>lit_1</title>
<ellipse fill="#a0b0d0" stroke="#a0b0d0" cx="99" cy="-256" rx="27" ry="18"/>
<text text-anchor="middle" x="99" y="-253.4235" font-family="luxi serif" font-size="13.00" fill="#ffffff">1</text>
</g>
<!-- lit_1&#45;&gt;ratio -->
<g id="edge4" class="edge">
<title>lit_1&#45;&gt;ratio</title>
<path fill="none" stroke="#c0c0c0" d="M99,-237.8314C99,-230.131 99,-220.9743 99,-212.4166"/>
<polygon fill="#c0c0c0" stroke="#c0c0c0" points="102.5001,-212.4132 99,-202.4133 95.5001,-212.4133 102.5001,-212.4132"/>
<text text-anchor="middle" x="89.2219" y="-206.853" font-family="luxi serif" font-size="11.00" fill="#a0b0d0">nom</text>
</g>
<!-- sum&#45;&gt;return -->
<g id="edge11" class="edge">
<title>sum&#45;&gt;return</title>
<path fill="none" stroke="#c0c0c0" d="M70,-93.8314C70,-86.131 70,-76.9743 70,-68.4166"/>
<polygon fill="#c0c0c0" stroke="#c0c0c0" points="73.5001,-68.4132 70,-58.4133 66.5001,-68.4133 73.5001,-68.4132"/>
</g>
</g>
</svg>
