<?xml version="1.0" encoding="UTF-8" standalone="no"?>
<!DOCTYPE svg PUBLIC "-//W3C//DTD SVG 1.1//EN"
 "http://www.w3.org/Graphics/SVG/1.1/DTD/svg11.dtd">
<!-- Generated by graphviz version 2.40.1 (20161225.0304)
 -->
<!-- Title: F Pages: 1 -->
<svg width="217pt" height="404pt"
 viewBox="0.00 0.00 217.00 404.00" xmlns="http://www.w3.org/2000/svg" xmlns:xlink="http://www.w3.org/1999/xlink">
<g id="graph0" class="graph" transform="scale(1 1) rotate(0) translate(4 400)">
<title>F</title>
<polygon fill="#ffffff" stroke="transparent" points="-4,4 -4,-400 213,-400 213,4 -4,4"/>
<!-- x -->
<g id="node1" class="node">
<title>x</title>
<ellipse fill="none" stroke="#a0a0b0" cx="41" cy="-378" rx="27" ry="18"/>
<text text-anchor="middle" x="41" y="-375.1125" font-family="go" font-size="13.00" fill="#a0a0b0">x</text>
</g>
<!-- exp_1 -->
<g id="node5" class="node">
<title>exp_1</title>
<ellipse fill="#e08090" stroke="#e08090" cx="171" cy="-234" rx="27" ry="18"/>
<text text-anchor="middle" x="171" y="-231.1125" font-family="go" font-size="13.00" fill="#ffffff">Exp</text>
</g>
<!-- x&#45;&gt;exp_1 -->
<g id="edge7" class="edge">
<title>x&#45;&gt;exp_1</title>
<path fill="none" stroke="#e08090" d="M43.7825,-359.8817C47.6084,-340.2291 56.1606,-308.8756 74,-288 78.8724,-282.2984 113.6775,-263.568 140.216,-249.7595"/>
<polygon fill="#e08090" stroke="#e08090" points="141.9247,-252.8162 149.1955,-245.11 138.706,-246.6001 141.9247,-252.8162"/>
<text text-anchor="middle" x="137.269" y="-249.0234" font-family="go" font-size="11.00" fill="#a0a0b0">base</text>
</g>
<!-- exp_2 -->
<g id="node7" class="node">
<title>exp_2</title>
<ellipse fill="#5080e0" stroke="#5080e0" cx="27" cy="-234" rx="27" ry="18"/>
<text text-anchor="middle" x="27" y="-231.1125" font-family="go" font-size="13.00" fill="#ffffff">Exp</text>
</g>
<!-- x&#45;&gt;exp_2 -->
<g id="edge8" class="edge">
<title>x&#45;&gt;exp_2</title>
<path fill="none" stroke="#5080e0" d="M39.2269,-359.7623C36.839,-335.201 32.5657,-291.2474 29.7566,-262.3541"/>
<polygon fill="#5080e0" stroke="#5080e0" points="33.21,-261.704 28.7587,-252.0896 26.2429,-262.3814 33.21,-261.704"/>
<text text-anchor="middle" x="16.8322" y="-256.003" font-family="go" font-size="11.00" fill="#a0a0b0">base</text>
</g>
<!-- y -->
<g id="node2" class="node">
<title>y</title>
<ellipse fill="none" stroke="#a0a0b0" cx="123" cy="-378" rx="27" ry="18"/>
<text text-anchor="middle" x="123" y="-375.1125" font-family="go" font-size="13.00" fill="#a0a0b0">y</text>
</g>
<!-- sin_1 -->
<g id="node4" class="node">
<title>sin_1</title>
<ellipse fill="#e08090" stroke="#e08090" cx="182" cy="-306" rx="27" ry="18"/>
<text text-anchor="middle" x="182" y="-303.1125" font-family="go" font-size="13.00" fill="#ffffff">Sin</text>
</g>
<!-- y&#45;&gt;sin_1 -->
<g id="edge9" class="edge">
<title>y&#45;&gt;sin_1</title>
<path fill="none" stroke="#e08090" d="M136.094,-362.0209C143.8089,-352.6061 153.7189,-340.5126 162.3555,-329.973"/>
<polygon fill="#e08090" stroke="#e08090" points="165.3115,-331.8877 168.9426,-321.9345 159.8971,-327.4509 165.3115,-331.8877"/>
<text text-anchor="middle" x="155.2356" y="-325.8478" font-family="go" font-size="11.00" fill="#a0a0b0">angle</text>
</g>
<!-- sin_2 -->
<g id="node6" class="node">
<title>sin_2</title>
<ellipse fill="#5080e0" stroke="#5080e0" cx="110" cy="-306" rx="27" ry="18"/>
<text text-anchor="middle" x="110" y="-303.1125" font-family="go" font-size="13.00" fill="#ffffff">Sin</text>
</g>
<!-- y&#45;&gt;sin_2 -->
<g id="edge10" class="edge">
<title>y&#45;&gt;sin_2</title>
<path fill="none" stroke="#5080e0" d="M119.7196,-359.8314C118.3078,-352.0125 116.625,-342.6923 115.0595,-334.0221"/>
<polygon fill="#5080e0" stroke="#5080e0" points="118.4556,-333.1324 113.2344,-323.9134 111.567,-334.3762 118.4556,-333.1324"/>
<text text-anchor="middle" x="126.9414" y="-327.8268" font-family="go" font-size="11.00" fill="#a0a0b0">angle</text>
</g>
<!-- return -->
<g id="node3" class="node">
<title>return</title>
<ellipse fill="none" stroke="#a0a0b0" cx="70" cy="-18" rx="32.5734" ry="18"/>
<text text-anchor="middle" x="70" y="-15.1125" font-family="go" font-size="13.00" fill="#a0a0b0">return</text>
</g>
<!-- sin_1&#45;&gt;exp_1 -->
<g id="edge1" class="edge">
<title>sin_1&#45;&gt;exp_1</title>
<path fill="none" stroke="#e08090" d="M179.2242,-287.8314C178.0297,-280.0125 176.6058,-270.6923 175.2812,-262.0221"/>
<polygon fill="#e08090" stroke="#e08090" points="178.707,-261.2701 173.7368,-251.9134 171.7873,-262.3273 178.707,-261.2701"/>
<text text-anchor="middle" x="164.8691" y="-255.8268" font-family="go" font-size="11.00" fill="#a0a0b0">exp</text>
</g>
<!-- ratio -->
<g id="node8" class="node">
<title>ratio</title>
<ellipse fill="#a0a0b0" stroke="#a0a0b0" cx="99" cy="-162" rx="30.2881" ry="18"/>
<text text-anchor="middle" x="99" y="-159.1125" font-family="go" font-size="13.00" fill="#ffffff">Ratio</text>
</g>
<!-- exp_1&#45;&gt;ratio -->
<g id="edge3" class="edge">
<title>exp_1&#45;&gt;ratio</title>
<path fill="none" stroke="#e08090" d="M155.7307,-218.7307C145.9372,-208.9372 133.0387,-196.0387 122.0156,-185.0156"/>
<polygon fill="#e08090" stroke="#e08090" points="124.2911,-182.3413 114.7451,-177.7451 119.3413,-187.2911 124.2911,-182.3413"/>
<text text-anchor="middle" x="131.562" y="-181.6585" font-family="go" font-size="11.00" fill="#a0a0b0">denom</text>
</g>
<!-- sin_2&#45;&gt;exp_2 -->
<g id="edge2" class="edge">
<title>sin_2&#45;&gt;exp_2</title>
<path fill="none" stroke="#5080e0" d="M93.2037,-291.4297C81.2002,-281.017 64.8613,-266.8435 51.4189,-255.1827"/>
<polygon fill="#5080e0" stroke="#5080e0" points="53.3354,-252.2118 43.4881,-248.3029 48.7485,-257.4996 53.3354,-252.2118"/>
<text text-anchor="middle" x="52.3557" y="-252.2163" font-family="go" font-size="11.00" fill="#a0a0b0">exp</text>
</g>
<!-- sum -->
<g id="node10" class="node">
<title>sum</title>
<ellipse fill="#a0a0b0" stroke="#a0a0b0" cx="70" cy="-90" rx="27.5871" ry="18"/>
<text text-anchor="middle" x="70" y="-87.1125" font-family="go" font-size="13.00" fill="#ffffff">Sum</text>
</g>
<!-- exp_2&#45;&gt;sum -->
<g id="edge6" class="edge">
<title>exp_2&#45;&gt;sum</title>
<path fill="none" stroke="#5080e0" d="M32.2726,-216.3428C39.6228,-191.7281 53.0225,-146.8549 61.7147,-117.746"/>
<polygon fill="#5080e0" stroke="#5080e0" points="65.1766,-118.385 64.6842,-107.8017 58.4692,-116.3821 65.1766,-118.385"/>
<text text-anchor="middle" x="53.8239" y="-111.715" font-family="go" font-size="11.00" fill="#a0a0b0">right</text>
</g>
<!-- ratio&#45;&gt;sum -->
<g id="edge5" class="edge">
<title>ratio&#45;&gt;sum</title>
<path fill="none" stroke="#a0a0b0" d="M91.8315,-144.2022C88.5303,-136.0064 84.5412,-126.1024 80.8809,-117.0145"/>
<polygon fill="#a0a0b0" stroke="#a0a0b0" points="84.0688,-115.5612 77.0861,-107.593 77.5757,-118.1766 84.0688,-115.5612"/>
<text text-anchor="middle" x="84.6996" y="-111.5064" font-family="go" font-size="11.00" fill="#a0a0b0">left</text>
</g>
<!-- lit_1 -->
<g id="node9" class="node">
<title>lit_1</title>
<ellipse fill="#a0a0b0" stroke="#a0a0b0" cx="99" cy="-234" rx="27" ry="18"/>
<text text-anchor="middle" x="99" y="-231.1125" font-family="go" font-size="13.00" fill="#ffffff">1</text>
</g>
<!-- lit_1&#45;&gt;ratio -->
<g id="edge4" class="edge">
<title>lit_1&#45;&gt;ratio</title>
<path fill="none" stroke="#a0a0b0" d="M99,-215.8314C99,-208.131 99,-198.9743 99,-190.4166"/>
<polygon fill="#a0a0b0" stroke="#a0a0b0" points="102.5001,-190.4132 99,-180.4133 95.5001,-190.4133 102.5001,-190.4132"/>
<text text-anchor="middle" x="88.3008" y="-184.3266" font-family="go" font-size="11.00" fill="#a0a0b0">nom</text>
</g>
<!-- sum&#45;&gt;return -->
<g id="edge11" class="edge">
<title>sum&#45;&gt;return</title>
<path fill="none" stroke="#a0a0b0" d="M70,-71.8314C70,-64.131 70,-54.9743 70,-46.4166"/>
<polygon fill="#a0a0b0" stroke="#a0a0b0" points="73.5001,-46.4132 70,-36.4133 66.5001,-46.4133 73.5001,-46.4132"/>
</g>
</g>
</svg>
