<?xml version="1.0" encoding="UTF-8" standalone="no"?>
<!DOCTYPE svg PUBLIC "-//W3C//DTD SVG 1.1//EN"
 "http://www.w3.org/Graphics/SVG/1.1/DTD/svg11.dtd">
<!-- Generated by graphviz version 2.40.1 (20161225.0304)
 -->
<!-- Title: F Pages: 1 -->
<svg width="206pt" height="332pt"
 viewBox="0.00 0.00 206.00 332.00" xmlns="http://www.w3.org/2000/svg" xmlns:xlink="http://www.w3.org/1999/xlink">
<g id="graph0" class="graph" transform="scale(1 1) rotate(0) translate(4 328)">
<title>F</title>
<polygon fill="#ffffff" stroke="transparent" points="-4,4 -4,-328 202,-328 202,4 -4,4"/>
<!-- x -->
<g id="node1" class="node">
<title>x</title>
<ellipse fill="none" stroke="#80c080" cx="99" cy="-306" rx="27" ry="18"/>
<text text-anchor="middle" x="99" y="-303.1125" font-family="go" font-size="13.00" fill="#8090d0">x</text>
</g>
<!-- g_1 -->
<g id="node4" class="node">
<title>g_1</title>
<ellipse fill="#8090d0" stroke="#8090d0" cx="99" cy="-234" rx="27" ry="18"/>
<text text-anchor="middle" x="99" y="-231.1125" font-family="go" font-size="13.00" fill="#ffffff">G</text>
</g>
<!-- x&#45;&gt;g_1 -->
<g id="edge5" class="edge">
<title>x&#45;&gt;g_1</title>
<path fill="none" stroke="#80c080" d="M99,-287.8314C99,-280.131 99,-270.9743 99,-262.4166"/>
<polygon fill="#80c080" stroke="#80c080" points="102.5001,-262.4132 99,-252.4133 95.5001,-262.4133 102.5001,-262.4132"/>
<text text-anchor="middle" x="96.25" y="-256.3266" font-family="go" font-size="11.00" fill="#8090d0">x</text>
</g>
<!-- g_2 -->
<g id="node8" class="node">
<title>g_2</title>
<ellipse fill="#8090d0" stroke="#8090d0" cx="171" cy="-234" rx="27" ry="18"/>
<text text-anchor="middle" x="171" y="-231.1125" font-family="go" font-size="13.00" fill="#ffffff">G</text>
</g>
<!-- x&#45;&gt;g_2 -->
<g id="edge6" class="edge">
<title>x&#45;&gt;g_2</title>
<path fill="none" stroke="#80c080" d="M114.2693,-290.7307C124.197,-280.803 137.3153,-267.6847 148.4363,-256.5637"/>
<polygon fill="#80c080" stroke="#80c080" points="151.1564,-258.7933 155.7527,-249.2473 146.2067,-253.8436 151.1564,-258.7933"/>
<text text-anchor="middle" x="153.0027" y="-253.1607" font-family="go" font-size="11.00" fill="#8090d0">x</text>
</g>
<!-- y -->
<g id="node2" class="node">
<title>y</title>
<ellipse fill="none" stroke="#80c080" cx="171" cy="-306" rx="27" ry="18"/>
<text text-anchor="middle" x="171" y="-303.1125" font-family="go" font-size="13.00" fill="#8090d0">y</text>
</g>
<!-- y&#45;&gt;g_1 -->
<g id="edge7" class="edge">
<title>y&#45;&gt;g_1</title>
<path fill="none" stroke="#80c080" d="M155.7307,-290.7307C145.803,-280.803 132.6847,-267.6847 121.5637,-256.5637"/>
<polygon fill="#80c080" stroke="#80c080" points="123.7933,-253.8436 114.2473,-249.2473 118.8436,-258.7933 123.7933,-253.8436"/>
<text text-anchor="middle" x="116.9973" y="-253.1607" font-family="go" font-size="11.00" fill="#8090d0">y</text>
</g>
<!-- y&#45;&gt;g_2 -->
<g id="edge8" class="edge">
<title>y&#45;&gt;g_2</title>
<path fill="none" stroke="#80c080" d="M171,-287.8314C171,-280.131 171,-270.9743 171,-262.4166"/>
<polygon fill="#80c080" stroke="#80c080" points="174.5001,-262.4132 171,-252.4133 167.5001,-262.4133 174.5001,-262.4132"/>
<text text-anchor="middle" x="168.25" y="-256.3266" font-family="go" font-size="11.00" fill="#8090d0">y</text>
</g>
<!-- return -->
<g id="node3" class="node">
<title>return</title>
<ellipse fill="none" stroke="#80c080" cx="128" cy="-18" rx="32.5734" ry="18"/>
<text text-anchor="middle" x="128" y="-15.1125" font-family="go" font-size="13.00" fill="#8090d0">return</text>
</g>
<!-- ratio -->
<g id="node5" class="node">
<title>ratio</title>
<ellipse fill="#8090d0" stroke="#8090d0" cx="99" cy="-162" rx="30.2881" ry="18"/>
<text text-anchor="middle" x="99" y="-159.1125" font-family="go" font-size="13.00" fill="#ffffff">Ratio</text>
</g>
<!-- g_1&#45;&gt;ratio -->
<g id="edge1" class="edge">
<title>g_1&#45;&gt;ratio</title>
<path fill="none" stroke="#80c080" d="M99,-215.8314C99,-208.131 99,-198.9743 99,-190.4166"/>
<polygon fill="#80c080" stroke="#80c080" points="102.5001,-190.4132 99,-180.4133 95.5001,-190.4133 102.5001,-190.4132"/>
<text text-anchor="middle" x="82.1831" y="-184.3266" font-family="go" font-size="11.00" fill="#8090d0">denom</text>
</g>
<!-- sum -->
<g id="node7" class="node">
<title>sum</title>
<ellipse fill="#8090d0" stroke="#8090d0" cx="128" cy="-90" rx="27.5871" ry="18"/>
<text text-anchor="middle" x="128" y="-87.1125" font-family="go" font-size="13.00" fill="#ffffff">Sum</text>
</g>
<!-- ratio&#45;&gt;sum -->
<g id="edge3" class="edge">
<title>ratio&#45;&gt;sum</title>
<path fill="none" stroke="#80c080" d="M106.1685,-144.2022C109.4697,-136.0064 113.4588,-126.1024 117.1191,-117.0145"/>
<polygon fill="#80c080" stroke="#80c080" points="120.4243,-118.1766 120.9139,-107.593 113.9312,-115.5612 120.4243,-118.1766"/>
<text text-anchor="middle" x="113.3004" y="-111.5064" font-family="go" font-size="11.00" fill="#8090d0">left</text>
</g>
<!-- lit_1 -->
<g id="node6" class="node">
<title>lit_1</title>
<ellipse fill="#8090d0" stroke="#8090d0" cx="27" cy="-234" rx="27" ry="18"/>
<text text-anchor="middle" x="27" y="-231.1125" font-family="go" font-size="13.00" fill="#ffffff">1</text>
</g>
<!-- lit_1&#45;&gt;ratio -->
<g id="edge2" class="edge">
<title>lit_1&#45;&gt;ratio</title>
<path fill="none" stroke="#80c080" d="M42.2693,-218.7307C52.0628,-208.9372 64.9613,-196.0387 75.9844,-185.0156"/>
<polygon fill="#80c080" stroke="#80c080" points="78.6587,-187.2911 83.2549,-177.7451 73.7089,-182.3413 78.6587,-187.2911"/>
<text text-anchor="middle" x="72.5557" y="-168.9451" font-family="go" font-size="11.00" fill="#8090d0">nom</text>
</g>
<!-- sum&#45;&gt;return -->
<g id="edge9" class="edge">
<title>sum&#45;&gt;return</title>
<path fill="none" stroke="#80c080" d="M128,-71.8314C128,-64.131 128,-54.9743 128,-46.4166"/>
<polygon fill="#80c080" stroke="#80c080" points="131.5001,-46.4132 128,-36.4133 124.5001,-46.4133 131.5001,-46.4132"/>
</g>
<!-- g_2&#45;&gt;sum -->
<g id="edge4" class="edge">
<title>g_2&#45;&gt;sum</title>
<path fill="none" stroke="#80c080" d="M165.7274,-216.3428C158.3772,-191.7281 144.9775,-146.8549 136.2853,-117.746"/>
<polygon fill="#80c080" stroke="#80c080" points="139.5308,-116.3821 133.3158,-107.8017 132.8234,-118.385 139.5308,-116.3821"/>
<text text-anchor="middle" x="144.1761" y="-111.715" font-family="go" font-size="11.00" fill="#8090d0">right</text>
</g>
</g>
</svg>
