<?xml version="1.0" encoding="UTF-8" standalone="no"?>
<!DOCTYPE svg PUBLIC "-//W3C//DTD SVG 1.1//EN"
 "http://www.w3.org/Graphics/SVG/1.1/DTD/svg11.dtd">
<!-- Generated by graphviz version 2.40.1 (20161225.0304)
 -->
<!-- Title: G Pages: 1 -->
<svg width="134pt" height="260pt"
 viewBox="0.00 0.00 134.00 260.00" xmlns="http://www.w3.org/2000/svg" xmlns:xlink="http://www.w3.org/1999/xlink">
<g id="graph0" class="graph" transform="scale(1 1) rotate(0) translate(4 256)">
<title>G</title>
<polygon fill="#ffffff" stroke="transparent" points="-4,4 -4,-256 130,-256 130,4 -4,4"/>
<!-- x -->
<g id="node1" class="node">
<title>x</title>
<ellipse fill="none" stroke="#80c080" cx="27" cy="-234" rx="27" ry="18"/>
<text text-anchor="middle" x="27" y="-231.1125" font-family="go" font-size="13.00" fill="#8090d0">x</text>
</g>
<!-- exp_1 -->
<g id="node5" class="node">
<title>exp_1</title>
<ellipse fill="#8090d0" stroke="#8090d0" cx="58" cy="-90" rx="27" ry="18"/>
<text text-anchor="middle" x="58" y="-87.1125" font-family="go" font-size="13.00" fill="#ffffff">Exp</text>
</g>
<!-- x&#45;&gt;exp_1 -->
<g id="edge2" class="edge">
<title>x&#45;&gt;exp_1</title>
<path fill="none" stroke="#80c080" d="M30.8635,-216.0535C36.1542,-191.4774 45.7075,-147.1008 51.9512,-118.0974"/>
<polygon fill="#80c080" stroke="#80c080" points="55.4048,-118.6854 54.0878,-108.1727 48.5616,-117.2121 55.4048,-118.6854"/>
<text text-anchor="middle" x="42.1613" y="-112.0861" font-family="go" font-size="11.00" fill="#8090d0">base</text>
</g>
<!-- y -->
<g id="node2" class="node">
<title>y</title>
<ellipse fill="none" stroke="#80c080" cx="99" cy="-234" rx="27" ry="18"/>
<text text-anchor="middle" x="99" y="-231.1125" font-family="go" font-size="13.00" fill="#8090d0">y</text>
</g>
<!-- sin_1 -->
<g id="node4" class="node">
<title>sin_1</title>
<ellipse fill="#8090d0" stroke="#8090d0" cx="90" cy="-162" rx="27" ry="18"/>
<text text-anchor="middle" x="90" y="-159.1125" font-family="go" font-size="13.00" fill="#ffffff">Sin</text>
</g>
<!-- y&#45;&gt;sin_1 -->
<g id="edge3" class="edge">
<title>y&#45;&gt;sin_1</title>
<path fill="none" stroke="#80c080" d="M96.7289,-215.8314C95.7664,-208.131 94.6218,-198.9743 93.5521,-190.4166"/>
<polygon fill="#80c080" stroke="#80c080" points="97.0151,-189.9019 92.3017,-180.4133 90.0691,-190.7702 97.0151,-189.9019"/>
<text text-anchor="middle" x="78.5946" y="-184.3266" font-family="go" font-size="11.00" fill="#8090d0">angle</text>
</g>
<!-- return -->
<g id="node3" class="node">
<title>return</title>
<ellipse fill="none" stroke="#80c080" cx="58" cy="-18" rx="32.5734" ry="18"/>
<text text-anchor="middle" x="58" y="-15.1125" font-family="go" font-size="13.00" fill="#8090d0">return</text>
</g>
<!-- sin_1&#45;&gt;exp_1 -->
<g id="edge1" class="edge">
<title>sin_1&#45;&gt;exp_1</title>
<path fill="none" stroke="#80c080" d="M82.2537,-144.5708C78.5196,-136.1691 73.9596,-125.9091 69.8055,-116.5623"/>
<polygon fill="#80c080" stroke="#80c080" points="72.9348,-114.9853 65.675,-107.2687 66.5381,-117.8283 72.9348,-114.9853"/>
<text text-anchor="middle" x="74.5426" y="-111.1821" font-family="go" font-size="11.00" fill="#8090d0">exp</text>
</g>
<!-- exp_1&#45;&gt;return -->
<g id="edge4" class="edge">
<title>exp_1&#45;&gt;return</title>
<path fill="none" stroke="#80c080" d="M58,-71.8314C58,-64.131 58,-54.9743 58,-46.4166"/>
<polygon fill="#80c080" stroke="#80c080" points="61.5001,-46.4132 58,-36.4133 54.5001,-46.4133 61.5001,-46.4132"/>
</g>
</g>
</svg>
