<?xml version="1.0" encoding="UTF-8" standalone="no"?>
<!DOCTYPE svg PUBLIC "-//W3C//DTD SVG 1.1//EN"
 "http://www.w3.org/Graphics/SVG/1.1/DTD/svg11.dtd">
<!-- Generated by graphviz version 2.40.1 (20161225.0304)
 -->
<!-- Title: F Pages: 1 -->
<svg width="170pt" height="332pt"
 viewBox="0.00 0.00 170.00 332.00" xmlns="http://www.w3.org/2000/svg" xmlns:xlink="http://www.w3.org/1999/xlink">
<g id="graph0" class="graph" transform="scale(1 1) rotate(0) translate(4 328)">
<title>F</title>
<polygon fill="#ffffff" stroke="transparent" points="-4,4 -4,-328 166,-328 166,4 -4,4"/>
<!-- x -->
<g id="node1" class="node">
<title>x</title>
<ellipse fill="none" stroke="#80c080" cx="63" cy="-306" rx="27" ry="18"/>
<text text-anchor="middle" x="63" y="-303.1125" font-family="go" font-size="13.00" fill="#8090d0">x</text>
</g>
<!-- g -->
<g id="node4" class="node">
<title>g</title>
<ellipse fill="#8090d0" stroke="#8090d0" cx="99" cy="-234" rx="27" ry="18"/>
<text text-anchor="middle" x="99" y="-231.1125" font-family="go" font-size="13.00" fill="#ffffff">G</text>
</g>
<!-- x&#45;&gt;g -->
<g id="edge5" class="edge">
<title>x&#45;&gt;g</title>
<path fill="none" stroke="#80c080" d="M71.7146,-288.5708C75.9597,-280.0807 81.1536,-269.6929 85.8663,-260.2674"/>
<polygon fill="#80c080" stroke="#80c080" points="89.024,-261.7782 90.3657,-251.2687 82.763,-258.6477 89.024,-261.7782"/>
<text text-anchor="middle" x="93.1157" y="-255.1821" font-family="go" font-size="11.00" fill="#8090d0">x</text>
</g>
<!-- y -->
<g id="node2" class="node">
<title>y</title>
<ellipse fill="none" stroke="#80c080" cx="135" cy="-306" rx="27" ry="18"/>
<text text-anchor="middle" x="135" y="-303.1125" font-family="go" font-size="13.00" fill="#8090d0">y</text>
</g>
<!-- y&#45;&gt;g -->
<g id="edge6" class="edge">
<title>y&#45;&gt;g</title>
<path fill="none" stroke="#80c080" d="M126.2854,-288.5708C122.0403,-280.0807 116.8464,-269.6929 112.1337,-260.2674"/>
<polygon fill="#80c080" stroke="#80c080" points="115.237,-258.6477 107.6343,-251.2687 108.976,-261.7782 115.237,-258.6477"/>
<text text-anchor="middle" x="104.8843" y="-255.1821" font-family="go" font-size="11.00" fill="#8090d0">y</text>
</g>
<!-- return -->
<g id="node3" class="node">
<title>return</title>
<ellipse fill="none" stroke="#80c080" cx="70" cy="-18" rx="32.5734" ry="18"/>
<text text-anchor="middle" x="70" y="-15.1125" font-family="go" font-size="13.00" fill="#8090d0">return</text>
</g>
<!-- ratio -->
<g id="node5" class="node">
<title>ratio</title>
<ellipse fill="#8090d0" stroke="#8090d0" cx="41" cy="-162" rx="30.2881" ry="18"/>
<text text-anchor="middle" x="41" y="-159.1125" font-family="go" font-size="13.00" fill="#ffffff">Ratio</text>
</g>
<!-- g&#45;&gt;ratio -->
<g id="edge1" class="edge">
<title>g&#45;&gt;ratio</title>
<path fill="none" stroke="#80c080" d="M86.1279,-218.0209C78.6491,-208.7368 69.072,-196.848 60.6661,-186.413"/>
<polygon fill="#80c080" stroke="#80c080" points="63.2372,-184.0255 54.2382,-178.4336 57.7859,-188.4169 63.2372,-184.0255"/>
<text text-anchor="middle" x="71.0551" y="-182.347" font-family="go" font-size="11.00" fill="#8090d0">denom</text>
</g>
<!-- sum -->
<g id="node7" class="node">
<title>sum</title>
<ellipse fill="#8090d0" stroke="#8090d0" cx="70" cy="-90" rx="27.5871" ry="18"/>
<text text-anchor="middle" x="70" y="-87.1125" font-family="go" font-size="13.00" fill="#ffffff">Sum</text>
</g>
<!-- g&#45;&gt;sum -->
<g id="edge4" class="edge">
<title>g&#45;&gt;sum</title>
<path fill="none" stroke="#80c080" d="M95.3858,-216.0535C90.4364,-191.4774 81.4995,-147.1008 75.6585,-118.0974"/>
<polygon fill="#80c080" stroke="#80c080" points="79.0652,-117.2849 73.6598,-108.1727 72.203,-118.6669 79.0652,-117.2849"/>
<text text-anchor="middle" x="62.7994" y="-112.0861" font-family="go" font-size="11.00" fill="#8090d0">right</text>
</g>
<!-- ratio&#45;&gt;sum -->
<g id="edge3" class="edge">
<title>ratio&#45;&gt;sum</title>
<path fill="none" stroke="#80c080" d="M48.1685,-144.2022C51.4697,-136.0064 55.4588,-126.1024 59.1191,-117.0145"/>
<polygon fill="#80c080" stroke="#80c080" points="62.4243,-118.1766 62.9139,-107.593 55.9312,-115.5612 62.4243,-118.1766"/>
<text text-anchor="middle" x="55.3004" y="-111.5064" font-family="go" font-size="11.00" fill="#8090d0">left</text>
</g>
<!-- lit_1 -->
<g id="node6" class="node">
<title>lit_1</title>
<ellipse fill="#8090d0" stroke="#8090d0" cx="27" cy="-234" rx="27" ry="18"/>
<text text-anchor="middle" x="27" y="-231.1125" font-family="go" font-size="13.00" fill="#ffffff">1</text>
</g>
<!-- lit_1&#45;&gt;ratio -->
<g id="edge2" class="edge">
<title>lit_1&#45;&gt;ratio</title>
<path fill="none" stroke="#80c080" d="M30.5328,-215.8314C32.0698,-207.9266 33.9053,-198.4872 35.6068,-189.7365"/>
<polygon fill="#80c080" stroke="#80c080" points="39.0437,-190.3976 37.5168,-179.9134 32.1724,-189.0615 39.0437,-190.3976"/>
<text text-anchor="middle" x="26.8176" y="-183.8268" font-family="go" font-size="11.00" fill="#8090d0">nom</text>
</g>
<!-- sum&#45;&gt;return -->
<g id="edge7" class="edge">
<title>sum&#45;&gt;return</title>
<path fill="none" stroke="#80c080" d="M70,-71.8314C70,-64.131 70,-54.9743 70,-46.4166"/>
<polygon fill="#80c080" stroke="#80c080" points="73.5001,-46.4132 70,-36.4133 66.5001,-46.4133 73.5001,-46.4132"/>
</g>
</g>
</svg>
